<svg width="24" height="24" viewBox="0 0 24 24" fill="none" xmlns="http://www.w3.org/2000/svg">
<path fill-rule="evenodd" clip-rule="evenodd" d="M21.4992 17.874C21.442 17.9657 21.3436 18.0205 21.2355 18.0205C21.1802 18.0205 21.1257 18.0056 21.078 17.9773C20.4211 17.5868 19.6649 17.2392 18.8303 16.9437C18.6804 16.8906 18.5952 16.7339 18.6321 16.5791C18.928 15.353 19.1003 14.0521 19.1453 12.713C19.1507 12.545 19.2869 12.4134 19.4554 12.4134H22.8365C22.9217 12.4134 23.0045 12.449 23.063 12.5115C23.1209 12.5738 23.1509 12.6582 23.1458 12.7429C23.0258 14.5572 22.4565 16.3313 21.4992 17.874ZM20.6308 19.0882C19.5565 20.3945 18.1756 21.4572 16.6369 22.1621C16.5969 22.1807 16.5522 22.1904 16.5077 22.1904C16.4111 22.1904 16.3216 22.1465 16.2626 22.0702C16.1738 21.9561 16.1757 21.7973 16.2669 21.6848C17.0818 20.6819 17.7468 19.4221 18.2435 17.9406C18.2697 17.8618 18.3274 17.796 18.4023 17.7599C18.4749 17.7243 18.5633 17.7192 18.6421 17.7469C19.3378 17.9991 19.9783 18.2938 20.547 18.6231C20.6254 18.6684 20.6802 18.746 20.6966 18.8361C20.7128 18.9264 20.6885 19.0184 20.6308 19.0882ZM12.7922 23.0803C12.7693 23.0855 12.7461 23.0879 12.7232 23.0879C12.6531 23.0879 12.5843 23.0639 12.5299 23.0202C12.4557 22.9612 12.4134 22.873 12.4134 22.7781V17.0024C12.4134 16.9188 12.4476 16.8379 12.5072 16.7797C12.566 16.723 12.6426 16.6923 12.7232 16.6923L12.7383 16.6928C14.3045 16.7419 15.8087 16.9488 17.2036 17.3074C17.2875 17.329 17.3587 17.3851 17.3997 17.4608C17.4404 17.5366 17.448 17.6267 17.4199 17.7081C16.4141 20.6418 14.6839 22.65 12.7922 23.0803ZM12.4134 12.7232C12.4134 12.5522 12.5522 12.4134 12.7232 12.4134H18.0062C18.09 12.4134 18.1715 12.4479 18.2297 12.5088C18.288 12.5687 18.3195 12.6517 18.3157 12.7359C18.2685 13.9615 18.1051 15.1596 17.8306 16.2962C17.8109 16.3766 17.7592 16.447 17.6882 16.4893C17.6402 16.5182 17.5852 16.5333 17.5289 16.5333C17.5024 16.5333 17.476 16.53 17.4504 16.5233C15.9654 16.1366 14.3714 15.9152 12.714 15.8656C12.5452 15.8602 12.4134 15.7243 12.4134 15.5555V12.7232ZM12.4134 8.44458C12.4134 8.27577 12.5452 8.13986 12.7138 8.13446C14.3722 8.08485 15.9659 7.86345 17.4509 7.47676C17.5289 7.45626 17.6173 7.4684 17.6885 7.51073C17.7592 7.55307 17.8109 7.62345 17.8306 7.70381C18.1051 8.84044 18.2685 10.0386 18.3157 11.2647C18.3195 11.348 18.288 11.4311 18.2292 11.4918C18.1712 11.5522 18.0898 11.5867 18.0062 11.5867H12.7232C12.5522 11.5867 12.4134 11.4475 12.4134 11.2766V8.44458ZM12.4134 1.22225C12.4134 1.12706 12.4557 1.03888 12.5299 0.979823C12.6024 0.921845 12.7005 0.898924 12.7917 0.919688C14.6845 1.35007 16.4143 3.35825 17.4199 6.29191C17.448 6.37335 17.4404 6.46369 17.3997 6.53946C17.3587 6.61524 17.2875 6.67106 17.2039 6.69263C15.8092 7.05155 14.305 7.25838 12.7329 7.30746C12.7326 7.30773 12.7324 7.30773 12.7321 7.30773C12.642 7.30773 12.5657 7.27672 12.5077 7.22063C12.4476 7.16211 12.4134 7.08122 12.4134 6.99789V1.22225ZM16.2625 1.92995C16.3488 1.81858 16.5101 1.77894 16.6371 1.83799C18.1755 2.54262 19.5567 3.60563 20.6308 4.91188C20.6885 4.98172 20.7125 5.07368 20.6966 5.16348C20.6804 5.25381 20.6259 5.33121 20.5472 5.37705C19.9798 5.70577 19.3391 6.00078 18.6426 6.25291C18.6081 6.26505 18.5727 6.27125 18.5374 6.27125C18.4905 6.27125 18.4436 6.26047 18.4018 6.23997C18.3273 6.20411 18.2696 6.13831 18.2435 6.05984C17.7468 4.57804 17.0818 3.31817 16.2671 2.31557C16.1757 2.20285 16.1738 2.04429 16.2625 1.92995ZM21.4992 6.12604C22.4565 7.66851 23.0258 9.44262 23.1458 11.2558C23.1509 11.3416 23.1209 11.426 23.0632 11.488C23.0042 11.5508 22.9217 11.5864 22.8365 11.5864H19.4554C19.2869 11.5864 19.1507 11.4546 19.1453 11.2863C19.1003 9.94743 18.928 8.64684 18.6321 7.42096C18.5952 7.2659 18.6804 7.10923 18.8303 7.0561C19.6655 6.76001 20.4216 6.41242 21.0774 6.02276C21.2206 5.93835 21.4134 5.98743 21.4992 6.12604ZM11.5865 6.99793C11.5865 7.08125 11.5522 7.16242 11.4924 7.2204C11.4341 7.27676 11.3575 7.30777 11.2766 7.30777C9.69559 7.25788 8.19114 7.05078 6.79618 6.69186C6.71258 6.67056 6.64112 6.61474 6.6004 6.53869C6.55941 6.46345 6.55186 6.37312 6.57991 6.29114C7.58602 3.35802 9.31618 1.35011 11.2079 0.919724C11.2982 0.89896 11.3972 0.921612 11.47 0.979859C11.5441 1.03892 11.5865 1.12709 11.5865 1.22229V6.99793ZM11.5868 11.2763C11.5868 11.4473 11.448 11.5865 11.277 11.5865H5.99402C5.91016 11.5865 5.82872 11.5519 5.77074 11.4915C5.7125 11.4309 5.68094 11.3481 5.68445 11.2645C5.73164 10.0372 5.89506 8.83913 6.17011 7.70277C6.18926 7.62295 6.24103 7.55229 6.31223 7.50969C6.38261 7.46762 6.46701 7.45468 6.54872 7.47544C8.03591 7.86295 9.62962 8.08461 11.2862 8.13423C11.4547 8.13962 11.5868 8.27553 11.5868 8.44434V11.2763ZM11.5868 15.5555C11.5868 15.7243 11.4547 15.8602 11.2862 15.8656C9.62962 15.9152 8.03591 16.1369 6.5498 16.5241C6.5231 16.5308 6.49694 16.5341 6.47159 16.5341C6.4155 16.5341 6.36076 16.519 6.31249 16.4904C6.24103 16.4475 6.18926 16.3769 6.17011 16.2965C5.89506 15.1607 5.73164 13.9623 5.68445 12.7351C5.68094 12.6515 5.71276 12.5687 5.77074 12.5083C5.82872 12.4479 5.90989 12.4134 5.99402 12.4134H11.277C11.448 12.4134 11.5868 12.5522 11.5868 12.7232V15.5555ZM11.5865 22.778C11.5865 22.8729 11.5441 22.9611 11.47 23.0202C11.4152 23.0638 11.3465 23.0878 11.2766 23.0878C11.2534 23.0878 11.2302 23.0854 11.2079 23.0803C9.31591 22.6499 7.58602 20.642 6.57991 17.7089C6.55186 17.6269 6.55941 17.5368 6.6004 17.4608C6.64139 17.3853 6.71285 17.3295 6.79618 17.3082C8.1898 16.9498 9.6929 16.7427 11.2637 16.6928L11.2766 16.6925C11.3575 16.6925 11.4341 16.7235 11.4924 16.7796C11.5522 16.8379 11.5865 16.919 11.5865 17.0026V22.778ZM7.73797 22.0697C7.67864 22.1463 7.58912 22.1903 7.49258 22.1903C7.44754 22.1903 7.40386 22.1808 7.36341 22.1619C5.82498 21.4573 4.4435 20.3943 3.36889 19.0881C3.31118 19.0177 3.28718 18.926 3.30309 18.8362C3.31981 18.7456 3.37455 18.6679 3.4533 18.6226C4.01716 18.2961 4.65815 18.0021 5.35819 17.7489C5.43397 17.7214 5.52377 17.7254 5.59819 17.761C5.67316 17.7974 5.73114 17.8632 5.75756 17.9417C6.25401 19.4235 6.91873 20.6828 7.73312 21.6844C7.82426 21.7968 7.82615 21.9554 7.73797 22.0697ZM2.76371 18.0199C2.6553 18.0199 2.55661 17.9649 2.49998 17.873C1.54321 16.3307 0.973955 14.5569 0.854225 12.744C0.848562 12.6587 0.878764 12.5741 0.937011 12.5115C0.995798 12.449 1.07804 12.4134 1.16353 12.4134H4.54456C4.71283 12.4134 4.84901 12.545 4.8544 12.713C4.89917 14.0516 5.07202 15.3521 5.36757 16.5791C5.40479 16.7339 5.31957 16.8908 5.16991 16.944C4.33422 17.2395 3.57809 17.5871 2.922 17.9765C2.874 18.0048 2.81926 18.0199 2.76371 18.0199ZM2.50025 6.12665C2.58546 5.98805 2.78043 5.94005 2.92173 6.02337C3.57728 6.41277 4.33368 6.76009 5.16964 7.05591C5.31957 7.10904 5.40479 7.26598 5.36784 7.42077C5.07202 8.64773 4.89917 9.94832 4.8544 11.2869C4.84901 11.4549 4.71283 11.5865 4.54456 11.5865H1.16353C1.07831 11.5865 0.995797 11.5509 0.93755 11.4886C0.878764 11.4258 0.848561 11.3411 0.854224 11.2559C0.973955 9.4427 1.54321 7.66913 2.50025 6.12665ZM3.36889 4.9121C4.4435 3.60559 5.82498 2.54257 7.36368 1.83795C7.49015 1.77889 7.6506 1.81772 7.73743 1.92963C7.82615 2.04451 7.82426 2.20307 7.73312 2.31525C6.91873 3.31705 6.25401 4.57637 5.75756 6.05817C5.73114 6.13664 5.67316 6.20244 5.59846 6.23884C5.55613 6.25907 5.50974 6.26959 5.46363 6.26959C5.42723 6.26959 5.3919 6.26338 5.35765 6.25098C4.65761 5.99777 4.01662 5.70383 3.45303 5.37727C3.37455 5.33197 3.31981 5.25431 3.30309 5.16451C3.28718 5.0739 3.31118 4.98195 3.36889 4.9121ZM12 0C5.38328 0 0 5.38328 0 12C0 18.617 5.38328 24 12 24C18.617 24 24 18.617 24 12C24 5.38328 18.617 0 12 0Z" fill="white"/>
</svg>
