<svg width="86" height="14" viewBox="0 0 86 14" fill="none" xmlns="http://www.w3.org/2000/svg">
<path d="M6.13591 10.4745H3.15352V0.254883H0V13.4483H6.13591V10.4745Z" fill="white"/>
<path d="M18.2383 8.1674V0.254883H15.0953V8.1674C15.0953 9.65254 14.3759 10.7003 12.8847 10.7003C11.3935 10.7003 10.6391 9.67371 10.6391 8.18504V0.254883H7.49609V8.18504C7.49609 11.4834 9.17937 13.6952 12.8602 13.6952C16.4258 13.6811 18.2383 11.3493 18.2383 8.1674Z" fill="white"/>
<path d="M31.5443 13.4483V0.254883H28.506V8.22384L23.5994 0.254883H20.3516V13.4483H23.3898V5.64866L28.4292 13.4483H31.5443Z" fill="white"/>
<path d="M37.2905 0.254883L32.7227 13.4483H35.8203L36.8959 10.3016H41.0098L42.1064 13.4483H45.445L40.6152 0.254883H37.2905ZM37.8004 7.6312L38.9529 4.29404L40.1053 7.6312H37.8004Z" fill="white"/>
<path d="M44.9297 3.22869H47.1158V13.4483H50.2694V3.22869H52.4416V0.254883H44.9297V3.22869Z" fill="white"/>
<path d="M60.4457 3.22869V0.254883H54.2539V13.4483H60.5016V10.4745H57.4074V8.20267H60.3479V5.26767H57.4074V3.22869H60.4457Z" fill="white"/>
<path d="M69.1279 2.97817C70.0568 2.98169 70.9543 3.33446 71.6388 3.96943L73.5072 1.57063C72.2814 0.505283 70.7064 -0.0556124 69.0895 0.00435763C64.9197 0.00435763 62.1992 3.05577 62.1992 6.86916C62.1992 10.6825 64.8044 13.681 69.1488 13.681C70.7657 13.7163 72.3268 13.099 73.4897 11.9666L71.6388 9.71597C70.9578 10.3439 70.0708 10.6931 69.1488 10.7072C66.9557 10.7072 65.5029 9.01044 65.5029 6.82683C65.5029 4.64321 66.8055 2.97817 69.1279 2.97817Z" fill="white"/>
<path d="M74.9609 0.254883V13.4483H78.1145V8.24148H82.6439V13.4483H85.7975V0.254883H82.6439V5.21123H78.1145V0.254883H74.9609Z" fill="white"/>
</svg>
