<svg width="6" height="19" viewBox="0 0 6 19" fill="none" xmlns="http://www.w3.org/2000/svg">
<path d="M2.44444 18.8571C3 18.8571 3.4537 18.6801 3.80556 18.3261C4.15741 17.972 4.33333 17.5155 4.33333 16.9565V16.9565V11.3106C4.33333 10.9503 4.5 10.7702 4.83333 10.7702V10.7702H6V8.08696H4.83333C4.5 8.08696 4.33333 7.90683 4.33333 7.54658V7.54658V1.90062C4.33333 1.34161 4.15741 0.885093 3.80556 0.531056C3.4537 0.177019 3 0 2.44444 0V0H0V2.23602H1.5C1.83333 2.23602 2 2.42236 2 2.79503V2.79503V7.80745C2 8.22981 2.13272 8.57764 2.39815 8.85093C2.66358 9.12422 3.01235 9.26087 3.44444 9.26087V9.26087H3.55556V9.59627H3.44444C3.01235 9.59627 2.66358 9.73292 2.39815 10.0062C2.13272 10.2795 2 10.6273 2 11.0497V11.0497V16.0621C2 16.4348 1.83333 16.6211 1.5 16.6211V16.6211H0V18.8571H2.44444Z" fill="#FFFAEE"/>
</svg>
